# xmcd
#
# Track frame offsets: 
#        150
#        27257
#        46477
#        69062
#        86225
#        107560
#        135305
#        153987
#        171232
#        201650
#
# Disc length: 3022 seconds
#
# Revision: 7
# Processed by: cddbd v1.5.2PL0 Copyright (c) Steve Scherf et al.
# Submitted via: ExactAudioCopy v1.3
#
DISCID=820bcc0a
DTITLE=John Campbell - One Believer
DYEAR=1991
DGENRE=Blues
TTITLE0=Devil In My Closet
TTITLE1=Angel Of Sorrow
TTITLE2=Wild Streak
TTITLE3=Couldn't Do Nothin'
TTITLE4=Tiny Coffin
TTITLE5=World Of Trouble
TTITLE6=Voodoo Edge
TTITLE7=Person To Person
TTITLE8=Take Me Down
TTITLE9=One Believer
EXTD=
EXTT0=
EXTT1=
EXTT2=
EXTT3=
EXTT4=
EXTT5=
EXTT6=
EXTT7=
EXTT8=
EXTT9=
PLAYORDER=
